<?xml version="1.0" encoding="utf-8"?>
<!-- Svg Vector Icons : http://www.onlinewebfonts.com/icon -->
<!DOCTYPE svg PUBLIC "-//W3C//DTD SVG 1.1//EN" "http://www.w3.org/Graphics/SVG/1.1/DTD/svg11.dtd">
<svg version="1.1" xmlns="http://www.w3.org/2000/svg" xmlns:xlink="http://www.w3.org/1999/xlink" x="0px" y="0px" viewBox="0 0 256 256" enable-background="new 0 0 256 256" xml:space="preserve">
<metadata> Svg Vector Icons : http://www.onlinewebfonts.com/icon </metadata>
<g><g><g><path fill="#000000" d="M21.5,5.6c-3,1-7,4.6-8.9,7.8L11.1,16l-0.2,52l-0.1,52.1h24.6H60l-0.3,4c-3,35.5-9.6,53.5-25.1,69c-3.8,3.8-7.7,7.1-11.1,9.3c-8.5,5.4-9.2,6-11,8.7c-3.5,5.3-3.4,11.5,0.3,17.6c7.2,11.7,11.5,18.1,12.9,19.1c3.3,2.3,6.7,3.5,10.5,3.5c3.1,0,4.3-0.3,7.7-2c11.4-5.6,23.6-14.6,34.5-25.6c18.8-18.7,28.9-37.1,34.3-62.4c5.2-23.9,6.3-43.4,6.1-103.3l-0.2-41.4l-1.3-2.3c-1.9-3.7-4.4-6.1-8-7.9l-3.4-1.7L65,4.7C30.1,4.7,23.5,4.9,21.5,5.6z M106.8,14.9c0.9,0.4,1.9,1.5,2.2,2.5c0.8,2.3,0.8,80.3,0.1,96.6c-1.6,33-6.1,55.2-14.5,72c-10.8,21.7-27.4,38.9-50,52.1c-7.8,4.6-10.1,5.1-12.5,2.8c-1.7-1.6-13-19.6-13-20.8c0-3.1,1.2-4.4,8.3-9.1c8.3-5.5,16.5-13.1,21.8-20.2c4-5.2,9.9-16.8,12.1-23.5c4.6-14.1,7.5-32.3,8.2-52.3l0.1-4.3H44.9H20.2V64.4c0-35.9,0.2-46.6,0.7-47.6c1.4-2.8,0.6-2.8,43.9-2.8C99.3,14.1,105.5,14.2,106.8,14.9z"/><path fill="#000000" d="M148.3,5.6c-3.5,1.3-8.3,6.2-9.6,9.8c-0.8,2.5-0.9,7.5-0.9,53.7v51h24.6h24.7l-0.4,5.9c-1.2,18.3-5.5,37-11.1,48.3c-5.7,11.4-14.4,21.2-24.8,27.9c-7.6,4.9-9.9,6.9-11.7,9.9c-1.8,3.1-2.3,8.4-1.1,12c1,2.8,11.3,19.5,13.6,22c3.2,3.5,9.4,5.7,14,5c4.7-0.7,19.4-9.4,29.7-17.7c6.5-5.2,15.6-14.3,20.8-20.9c17.6-22.2,24.4-41.6,28.8-81.6c0.7-7,0.9-17.1,1.1-60.8c0.2-48.8,0.2-52.6-0.7-54.9c-1.2-3-5.1-7.5-8.2-9.1c-2.2-1.2-2.4-1.2-44.2-1.3C155.5,4.8,150.5,4.9,148.3,5.6z M235.4,16l1.3,1.6l-0.2,52.2c-0.2,54.3-0.3,57.2-2.9,74.6c-3.3,23.5-8.6,38.5-19,54.2c-11.1,16.7-26.9,31.1-45.4,41c-5.5,3-7.9,3.3-9.9,1.2c-0.7-0.7-3.9-5.4-7-10.4c-7.7-12.3-7.7-13.3,0.8-18.4c28.5-17.6,41-44.5,43.6-94l0.4-7.3h-25h-24.9V64.7c0-27.9,0.2-46.7,0.6-47.5c1.2-3.1-0.1-3.1,44.9-2.9l41.4,0.1L235.4,16z"/></g></g></g>
</svg>